<svg xmlns="http://www.w3.org/2000/svg" xmlns:xlink="http://www.w3.org/1999/xlink" width="180" height="50" viewBox="0 0 180 50" fill="none">
	<path     fill="#FFFFFF" fill-opacity="0" d="M0 50L180 50L180 0L0 0L0 50Z">
	</path>
	<path     fill="#FFFFFF"  d="M20.64 38.12C16.76 38.12 13.9 36.58 13.9 36.58C11.04 35.04 9.48 32.2 9.48 32.2C7.92 29.36 7.92 25.52 7.92 25.52L7.92 9.72L14.8 9.72L14.8 25.52C14.8 27.4 15.52 28.82 15.52 28.82C16.24 30.24 17.58 31 17.58 31C18.92 31.76 20.68 31.76 20.68 31.76C22.48 31.76 23.78 31 23.78 31C25.08 30.24 25.8 28.82 25.8 28.82C26.52 27.4 26.52 25.52 26.52 25.52L26.52 9.72L33.4 9.72L33.4 25.52C33.4 29.32 31.82 32.16 31.82 32.16C30.24 35 27.38 36.56 27.38 36.56C24.52 38.12 20.64 38.12 20.64 38.12Z">
	</path>
	<path     fill="#FFFFFF"  d="M51.68 38.12C48.48 38.12 45.74 37.02 45.74 37.02C43 35.92 40.96 33.96 40.96 33.96C38.92 32 37.78 29.38 37.78 29.38C36.64 26.76 36.64 23.72 36.64 23.72C36.64 20.64 37.78 18.02 37.78 18.02C38.92 15.4 40.98 13.44 40.98 13.44C43.04 11.48 45.78 10.38 45.78 10.38C48.52 9.28 51.68 9.28 51.68 9.28C54 9.28 56.24 9.96 56.24 9.96C58.48 10.64 60.38 11.86 60.38 11.86C62.28 13.08 63.56 14.76 63.56 14.76L58.92 19.32C57.44 17.44 55.62 16.52 55.62 16.52C53.8 15.6 51.68 15.6 51.68 15.6C50 15.6 48.54 16.22 48.54 16.22C47.08 16.84 46 17.92 46 17.92C44.92 19 44.32 20.48 44.32 20.48C43.72 21.96 43.72 23.72 43.72 23.72C43.72 25.44 44.34 26.9 44.34 26.9C44.96 28.36 46.06 29.46 46.06 29.46C47.16 30.56 48.66 31.16 48.66 31.16C50.16 31.76 51.92 31.76 51.92 31.76C53.96 31.76 55.7 30.88 55.7 30.88C57.44 30 58.84 28.28 58.84 28.28L63.36 32.72C62.08 34.36 60.2 35.58 60.2 35.58C58.32 36.8 56.12 37.46 56.12 37.46C53.92 38.12 51.68 38.12 51.68 38.12Z">
	</path>
	<path     fill="#FFFFFF"  d="M76.52 38.12C73.28 38.12 70.66 36.66 70.66 36.66C68.04 35.2 66.52 32.72 66.52 32.72C65 30.24 65 27.16 65 27.16C65 24.08 66.46 21.6 66.46 21.6C67.92 19.12 70.44 17.66 70.44 17.66C72.96 16.2 76.04 16.2 76.04 16.2C79.16 16.2 81.56 17.7 81.56 17.7C83.96 19.2 85.34 21.8 85.34 21.8C86.72 24.4 86.72 27.76 86.72 27.76L86.72 29.36L71.64 29.36C72.08 30.36 72.82 31.12 72.82 31.12C73.56 31.88 74.6 32.3 74.6 32.3C75.64 32.72 76.84 32.72 76.84 32.72C78.16 32.72 79.24 32.3 79.24 32.3C80.32 31.88 81.08 31.12 81.08 31.12L85.36 34.92C83.36 36.6 81.26 37.36 81.26 37.36C79.16 38.12 76.52 38.12 76.52 38.12ZM71.52 24.84L80.36 24.84C80.04 23.8 79.38 23.06 79.38 23.06C78.72 22.32 77.84 21.9 77.84 21.9C76.96 21.48 75.92 21.48 75.92 21.48C74.84 21.48 73.96 21.88 73.96 21.88C73.08 22.28 72.46 23.02 72.46 23.02C71.84 23.76 71.52 24.84 71.52 24.84Z">
	</path>
	<path     fill="#FFFFFF"  d="M89.76 37.72L89.76 16.56L96.24 16.56L96.24 18C98.64 16.16 101.92 16.16 101.92 16.16C104.4 16.16 106.3 17.24 106.3 17.24C108.2 18.32 109.28 20.24 109.28 20.24C110.36 22.16 110.36 24.68 110.36 24.68L110.36 37.72L103.88 37.72L103.88 25.56C103.88 23.8 102.84 22.76 102.84 22.76C101.8 21.72 100.04 21.72 100.04 21.72C98.8 21.72 97.86 22.16 97.86 22.16C96.92 22.6 96.24 23.4 96.24 23.4L96.24 37.72L89.76 37.72Z">
	</path>
	<path     fill="#FFFFFF"  d="M124.88 38C121.08 38 119.14 36.3 119.14 36.3C117.2 34.6 117.2 31.28 117.2 31.28L117.2 21.96L112.92 21.96L112.92 16.56L117.2 16.56L117.2 11.12L123.68 9.72L123.68 16.56L129.6 16.56L129.6 21.96L123.68 21.96L123.68 30C123.68 31.4 124.3 31.98 124.3 31.98C124.92 32.56 126.48 32.56 126.48 32.56C127.28 32.56 127.94 32.46 127.94 32.46C128.6 32.36 129.4 32.12 129.4 32.12L129.4 37.36C128.52 37.64 127.16 37.82 127.16 37.82C125.8 38 124.88 38 124.88 38Z">
	</path>
	<path     fill="#FFFFFF"  d="M142.68 38.12C139.44 38.12 136.82 36.66 136.82 36.66C134.2 35.2 132.68 32.72 132.68 32.72C131.16 30.24 131.16 27.16 131.16 27.16C131.16 24.08 132.62 21.6 132.62 21.6C134.08 19.12 136.6 17.66 136.6 17.66C139.12 16.2 142.2 16.2 142.2 16.2C145.32 16.2 147.72 17.7 147.72 17.7C150.12 19.2 151.5 21.8 151.5 21.8C152.88 24.4 152.88 27.76 152.88 27.76L152.88 29.36L137.8 29.36C138.24 30.36 138.98 31.12 138.98 31.12C139.72 31.88 140.76 32.3 140.76 32.3C141.8 32.72 143 32.72 143 32.72C144.32 32.72 145.4 32.3 145.4 32.3C146.48 31.88 147.24 31.12 147.24 31.12L151.52 34.92C149.52 36.6 147.42 37.36 147.42 37.36C145.32 38.12 142.68 38.12 142.68 38.12ZM137.68 24.84L146.52 24.84C146.2 23.8 145.54 23.06 145.54 23.06C144.88 22.32 144 21.9 144 21.9C143.12 21.48 142.08 21.48 142.08 21.48C141 21.48 140.12 21.88 140.12 21.88C139.24 22.28 138.62 23.02 138.62 23.02C138 23.76 137.68 24.84 137.68 24.84Z">
	</path>
	<path     fill="#FFFFFF"  d="M155.92 37.72L155.92 16.56L162.4 16.56L162.4 18.68C163.44 17.4 164.84 16.74 164.84 16.74C166.24 16.08 167.96 16.08 167.96 16.08C169.68 16.12 170.4 16.6 170.4 16.6L170.4 22.24C169.76 21.92 168.96 21.76 168.96 21.76C168.16 21.6 167.32 21.6 167.32 21.6C165.8 21.6 164.5 22.3 164.5 22.3C163.2 23 162.4 24.28 162.4 24.28L162.4 37.72L155.92 37.72Z">
	</path>
</svg>
